HIERARCHY
ROOT Hips
{
  OFFSET -187.679 86.5976 -156.378
  CHANNELS 6 Xposition Yposition Zposition Zrotation Xrotation Yrotation
  JOINT LeftUpLeg
  {
    OFFSET 8.64259 1.95398 -2.38835
    CHANNELS 3 Zrotation Xrotation Yrotation
    JOINT LeftLeg
    {
      OFFSET 43.7702 0 0
      CHANNELS 3 Zrotation Xrotation Yrotation
      JOINT LeftFoot
      {
        OFFSET 40.6238 0 0
        CHANNELS 3 Zrotation Xrotation Yrotation
        JOINT LeftToeBase
        {
          OFFSET 12.7242 0 0
          CHANNELS 3 Zrotation Xrotation Yrotation
          End Site
          {
            OFFSET 0 0 0
          }
        }
      }
    }
  }
  JOINT RightUpLeg
  {
    OFFSET -8.2249 1.95398 -2.59336
    CHANNELS 3 Zrotation Xrotation Yrotation
    JOINT RightLeg
    {
      OFFSET 43.5653 0 0
      CHANNELS 3 Zrotation Xrotation Yrotation
      JOINT RightFoot
      {
        OFFSET 40.6238 0 0
        CHANNELS 3 Zrotation Xrotation Yrotation
        JOINT RightToeBase
        {
          OFFSET 12.7242 0 0
          CHANNELS 3 Zrotation Xrotation Yrotation
          End Site
          {
            OFFSET 0 0 0
          }
        }
      }
    }
  }
  JOINT Spine
  {
    OFFSET 0.165834 0.87714 6.61349
    CHANNELS 3 Zrotation Xrotation Yrotation
    JOINT Spine1
    {
      OFFSET 7.38963 1.71661e-005 0
      CHANNELS 3 Zrotation Xrotation Yrotation
      JOINT Spine2
      {
        OFFSET 11.9445 1.14441e-005 0
        CHANNELS 3 Zrotation Xrotation Yrotation
        JOINT Spine3
        {
          OFFSET 14.7254 4.19617e-005 0
          CHANNELS 3 Zrotation Xrotation Yrotation
          JOINT Spine4
          {
            OFFSET 10.9679 0 0
            CHANNELS 3 Zrotation Xrotation Yrotation
            JOINT RightShoulder
            {
              OFFSET 2.46616 -1.6653 3.69651
              CHANNELS 3 Zrotation Xrotation Yrotation
              JOINT RightArm
              {
                OFFSET 13.0012 0 0
                CHANNELS 3 Zrotation Xrotation Yrotation
                JOINT RightForeArm
                {
                  OFFSET 28.7848 1.52588e-005 0
                  CHANNELS 3 Zrotation Xrotation Yrotation
                  JOINT RightHand
                  {
                    OFFSET 26.5688 1.52588e-005 0
                    CHANNELS 3 Zrotation Xrotation Yrotation
                    End Site
                    {
                      OFFSET 0 0 0
                    }
                  }
                }
              }
            }
            JOINT LeftShoulder
            {
              OFFSET 2.38034 -1.29275 -3.7523
              CHANNELS 3 Zrotation Xrotation Yrotation
              JOINT LeftArm
              {
                OFFSET 16.3182 6.10352e-005 0
                CHANNELS 3 Zrotation Xrotation Yrotation
                JOINT LeftForeArm
                {
                  OFFSET 27.0901 0 0
                  CHANNELS 3 Zrotation Xrotation Yrotation
                  JOINT LeftHand
                  {
                    OFFSET 24.5451 1.52588e-005 0
                    CHANNELS 3 Zrotation Xrotation Yrotation
                    End Site
                    {
                      OFFSET 0 0 0
                    }
                  }
                }
              }
            }
            JOINT Neck
            {
              OFFSET 5.0226 -0.0266342 0
              CHANNELS 3 Zrotation Xrotation Yrotation
              JOINT Head
              {
                OFFSET 6.69363 2.86102e-005 0
                CHANNELS 3 Zrotation Xrotation Yrotation
                End Site
                {
                  OFFSET 0 0 0
                }
              }
            }
          }
        }
      }
    }
  }
}
MOTION
Frames:	9
Frame Time:	0.0416667
-102.63 21.805 116.625 -10.3036 -10.4106 -90.1381 -149.665 25.375 111.534 -61.3098 34.7562 -14.0826 82.7982 8.74516 -5.78426 29.5079 -3.53331 11.6918 168.264 7.66865 81.5689 -43.7897 -2.98059 1.75574 73.6955 -4.48465 2.63646 29.7169 -1.44116 5.68614 -0.131915 7.01888 -89.1986 12.8326 0.121802 1.5877 1.16072 0.191576 1.58083 -21.3669 -0.360937 1.55095 -1.35425 -0.360922 1.55095 82.2028 -48.6072 -112.906 -155.31 72.9816 131.243 -25.3451 1.92511 -151.712 -4.29942 -0.700585 15.8449 -89.4001 -38.7397 77.23 -27.2317 -43.9862 -76.8158 44.3435 -10.9832 -113.059 -11.7147 -1.2867 10.4196 43.9102 -2.60219 -1.15655 7.83583 -1.62682 2.03131 
-101.072 22.9734 118.678 -10.3516 -6.41448 -89.4897 -151.523 20.5475 110.449 -58.0406 30.5068 -12.4721 71.6772 4.08765 -4.97997 28.9907 -4.05335 12.4195 167.064 11.6231 80.4518 -48.48 -3.20375 2.3766 74.1786 -4.4671 3.01028 31.2167 -1.34351 6.48066 0.21064 6.98617 -89.3846 12.897 0.713319 1.14431 1.22574 0.762976 1.11179 -21.3059 0.336449 1.30574 -1.29322 0.33646 1.30573 81.9584 -47.1308 -113.844 -160.572 75.3499 133.673 -28.7433 -0.0196413 -147.022 -5.03228 -0.772095 14.2389 -89.4007 -38.7495 77.2317 -26.7222 -41.1642 -78.5557 47.8244 -10.4514 -110.102 -12.3282 -1.38573 10.637 42.9643 -1.75576 0.645037 8.06061 -1.90248 0.545588 
-99.2287 24.0355 120.612 -10.312 -2.39681 -88.2774 -154.014 15.5521 109.457 -50.8761 21.7658 -11.8396 72.0608 4.12108 -5.29063 26.1413 -5.31471 11.7635 166.755 14.9676 79.615 -51.5673 -6.10861 2.023 75.3032 -4.80792 3.708 32.3477 -1.11827 6.53084 0.6163 7.01584 -89.6384 12.8388 1.39707 0.556214 1.16849 1.42019 0.494165 -21.3701 1.16532 0.95039 -1.35746 1.16531 0.950398 84.8909 -43.2589 -110.685 -170.353 77.757 143.758 -32.861 0.144321 -143.279 -3.34731 -0.473568 13.6475 -88.9029 -37.1802 77.674 -29.9878 -38.3986 -82.9883 50.6968 -9.14778 -107.717 -13.9551 -1.63002 10.9406 42.9965 -1.36181 0.798039 7.73452 -1.61688 0.516409 
-96.9504 25.1567 122.383 -10.9413 -1.36806 -88.6623 -154.626 13.2103 108.461 -41.6397 21.0411 -13.069 79.1045 6.53272 -6.702 28.7279 -4.97176 14.6346 165.335 17.1766 77.7293 -53.9678 -8.55743 2.24694 77.2013 -5.43408 2.96157 34.9826 -0.731343 7.33115 0.68139 7.17522 -89.8592 12.5243 1.42066 0.115252 0.854093 1.42435 0.0525869 -21.6867 1.32034 0.536958 -1.67401 1.32033 0.536956 86.9254 -39.1456 -108.819 172.203 79.6495 159.589 -37.4782 -1.00122 -138.442 -2.70762 -0.360559 13.3295 -89.0631 -37.9765 77.6096 -32.1863 -36.1295 -88.6645 55.6986 -7.29346 -104.82 -16.0735 -1.75202 9.61849 43.3803 -0.440434 2.81762 7.76778 -1.92765 -0.898218 
-94.9208 26.4354 123.587 -11.8589 -0.354812 -88.4196 -155.137 14.6279 108.166 -40.9429 25.4227 -12.4413 82.2163 8.18417 -5.95462 31.1965 -4.09884 16.0555 164.499 19.4718 77.0558 -57.6958 -8.4009 2.40279 78.4479 -5.73036 3.04626 38.5486 0.717704 3.83665 0.784161 7.3505 -89.8499 12.1732 1.6297 0.118501 0.503236 1.63335 0.0466386 -22.0393 1.51873 0.602913 -2.02659 1.51873 0.602931 87.4353 -39.1192 -107.947 151.49 80.4788 175.933 -43.3531 -2.18186 -132.649 0.158438 0.0944625 12.7768 -88.7618 -34.5111 77.2015 -34.7307 -33.2791 -93.0576 61.6539 -4.84182 -102.459 -17.4173 -1.76085 8.4401 42.8936 -1.4622 0.429089 8.56096 -1.44671 1.22558 
-93.4108 27.4719 124.948 -12.4982 2.1613 -88.3903 -155.09 16.4788 108.309 -45.4246 26.2353 -11.9608 84.4581 8.44075 -8.01816 30.9317 -4.12602 15.7063 164.198 23.2454 76.8667 -63.4508 -7.20147 2.01366 79.0946 -5.80768 2.72313 37.1322 0.532273 3.48271 0.860674 7.40877 -89.8638 12.0572 1.77532 0.0772655 0.387476 1.77703 -0.000957679 -22.1566 1.66999 0.607405 -2.1439 1.67001 0.607421 86.6973 -37.9968 -109.64 128.4 81.8654 -163.425 -47.2149 -3.89189 -127.779 -0.909215 -0.0715106 13.3511 -88.052 -33.2778 78.1498 -34.9321 -32.4345 -95.4927 63.7579 -2.17608 -100.53 -17.6145 -1.88525 9.19511 41.8444 -1.3055 0.363111 8.85975 -1.32233 0.66366 
-92.6571 27.4122 126.574 -12.7547 2.74901 -87.987 -154.794 18.2043 108.365 -49.5167 28.2766 -11.6542 85.5243 9.03658 -7.89816 29.2524 -4.8469 15.0766 162.363 24.7863 75.9307 -65.6643 -6.65422 2.79713 78.763 -5.67412 2.47054 37.5176 0.724995 2.8758 0.840977 7.34296 -90.0063 12.1911 1.66875 -0.197967 0.521165 1.65839 -0.271275 -22.0225 1.65107 0.31286 -2.00984 1.65107 0.312835 87.7222 -37.4865 -108.037 98.5622 80.0652 -133.807 -54.7453 -3.17667 -124.25 3.77106 0.561775 10.9422 -87.1043 -32.1129 79.6096 -36.5024 -29.455 -96.882 66.5637 -0.620156 -99.359 -18.2269 -1.79059 8.01153 42.4042 -0.568499 0.708088 8.63221 -0.901407 -0.166889 
-92.3705 26.1379 128.149 -13.1564 3.40687 -87.318 -153.592 19.451 109.066 -53.8993 29.0808 -11.8048 84.871 8.63698 -8.33482 29.9984 -4.67378 15.7653 161.367 24.2287 74.6297 -65.5364 -8.19367 3.0072 78.4735 -5.6217 2.59295 38.6747 0.961112 2.69985 0.934378 7.22871 -90.0669 12.4206 1.82482 -0.342721 0.750852 1.80798 -0.42274 -21.7945 1.84343 0.221752 -1.78187 1.84343 0.221748 89.9219 -35.9313 -104.626 96.7157 77.3644 -125.18 -55.5578 -0.428122 -126.558 7.46711 1.0677 10.4529 -88.179 -30.5268 77.137 -36.2387 -29.8714 -96.995 66.7686 1.63904 -98.1081 -18.4385 -1.75869 7.61584 44.0947 -1.75393 -2.67397 6.83877 -0.0458102 2.37157 
-92.4895 24.2638 129.739 -13.2656 2.59342 -87.0971 -152.998 18.8983 109.178 -55.3618 30.3109 -11.8598 85.4962 8.89277 -8.22194 29.6814 -4.84863 15.7557 159.653 22.8063 72.2132 -64.0864 -10.1884 3.68613 78.7815 -5.69105 3.36682 38.1073 0.888052 2.57582 0.925832 7.06622 -90.1596 12.7469 1.76246 -0.528176 1.07701 1.73749 -0.605262 -21.4677 1.83968 0.0261163 -1.45509 1.83968 0.0260971 91.6878 -31.1574 -102.857 107.26 80.0475 -119.198 -46.6042 5.5551 -135.709 9.92695 1.45505 11.0425 -86.4668 -30.5812 80.4148 -36.2268 -22.6911 -96.5247 68.4186 0.687701 -97.2676 -19.242 -1.74985 6.99337 44.1866 -1.18409 -1.17001 6.78671 -0.422344 0.854306 
